<?xml version="1.0" encoding="UTF-8" standalone="no"?>
<!-- Created with Inkscape (http://www.inkscape.org/) -->

<svg
   width="200"
   height="250"
   viewBox="0 0 52.916667 66.145833"
   version="1.1"
   id="svg623"
   inkscape:version="1.2.2 (b0a8486541, 2022-12-01)"
   sodipodi:docname="enemy_bluebasictank_outside.svg"
   xmlns:inkscape="http://www.inkscape.org/namespaces/inkscape"
   xmlns:sodipodi="http://sodipodi.sourceforge.net/DTD/sodipodi-0.dtd"
   xmlns="http://www.w3.org/2000/svg"
   xmlns:svg="http://www.w3.org/2000/svg">
  <sodipodi:namedview
     id="namedview625"
     pagecolor="#505050"
     bordercolor="#ffffff"
     borderopacity="1"
     inkscape:showpageshadow="0"
     inkscape:pageopacity="0"
     inkscape:pagecheckerboard="1"
     inkscape:deskcolor="#505050"
     inkscape:document-units="px"
     showgrid="false"
     inkscape:zoom="1.3475862"
     inkscape:cx="133.57216"
     inkscape:cy="146.55834"
     inkscape:window-width="1920"
     inkscape:window-height="995"
     inkscape:window-x="0"
     inkscape:window-y="0"
     inkscape:window-maximized="1"
     inkscape:current-layer="layer1" />
  <defs
     id="defs620" />
  <g
     inkscape:label="Layer 1"
     inkscape:groupmode="layer"
     id="layer1">
    <rect
       style="fill:#808080;stroke-width:1.13954;stroke-linejoin:bevel"
       id="rect396"
       width="13.229166"
       height="66.145828"
       x="0.20872788"
       y="0.14171991" />
    <rect
       style="fill:#808080;stroke-width:1.13954;stroke-linejoin:bevel"
       id="rect396-3"
       width="13.229166"
       height="66.145828"
       x="39.896229"
       y="0.14171991" />
    <rect
       style="fill:#000000;stroke-width:0.653648;stroke-linejoin:bevel"
       id="rect487-6"
       width="62.451271"
       height="2.0850129"
       x="-1.5612917"
       y="13.748385" />
    <rect
       style="fill:#000000;stroke-width:0.653648;stroke-linejoin:bevel"
       id="rect487-6-7"
       width="62.451271"
       height="2.0850129"
       x="-2.3666487"
       y="9.7166214" />
    <rect
       style="fill:#000000;stroke-width:0.653648;stroke-linejoin:bevel"
       id="rect487-6-5"
       width="62.451271"
       height="2.0850129"
       x="-2.4653101"
       y="18.077492" />
    <rect
       style="fill:#000000;stroke-width:0.653648;stroke-linejoin:bevel"
       id="rect487-6-3"
       width="62.451271"
       height="2.0850129"
       x="-2.7182989"
       y="22.502771" />
    <rect
       style="fill:#000000;stroke-width:0.653648;stroke-linejoin:bevel"
       id="rect487-6-56"
       width="62.451271"
       height="2.0850129"
       x="-3.5211668"
       y="26.815809" />
    <rect
       style="fill:#000000;stroke-width:0.653648;stroke-linejoin:bevel"
       id="rect487-6-2"
       width="62.451271"
       height="2.0850129"
       x="-5.7157049"
       y="31.016611" />
    <rect
       style="fill:#000000;stroke-width:0.653648;stroke-linejoin:bevel"
       id="rect487-6-9"
       width="62.451271"
       height="2.0850129"
       x="-3.8827753"
       y="35.706192" />
    <rect
       style="fill:#000000;stroke-width:0.653648;stroke-linejoin:bevel"
       id="rect487-6-1"
       width="62.451271"
       height="2.0850129"
       x="-5.5817404"
       y="39.832771" />
    <rect
       style="fill:#000000;stroke-width:0.653648;stroke-linejoin:bevel"
       id="rect487-6-27"
       width="62.451271"
       height="2.0850129"
       x="-4.4910364"
       y="43.831722" />
    <rect
       style="fill:#000000;stroke-width:0.653648;stroke-linejoin:bevel"
       id="rect487-6-0"
       width="62.451271"
       height="2.0850129"
       x="-6.0085211"
       y="48.070538" />
    <rect
       style="fill:#000000;stroke-width:0.653648;stroke-linejoin:bevel"
       id="rect487-6-93"
       width="62.451271"
       height="2.0850129"
       x="-5.3350859"
       y="52.852901" />
    <rect
       style="fill:#000000;stroke-width:0.653648;stroke-linejoin:bevel"
       id="rect487-6-6"
       width="62.451271"
       height="2.0850129"
       x="-48.895885"
       y="56.984909" />
    <rect
       style="fill:#000000;stroke-width:0.653648;stroke-linejoin:bevel"
       id="rect487-6-06"
       width="62.451271"
       height="2.0850129"
       x="39.720108"
       y="56.504276" />
    <rect
       style="fill:#000000;stroke-width:0.653648;stroke-linejoin:bevel"
       id="rect487-6-6-2"
       width="62.451271"
       height="2.0850129"
       x="-48.874615"
       y="61.033646" />
    <rect
       style="fill:#000000;stroke-width:0.653648;stroke-linejoin:bevel"
       id="rect487-6-06-6"
       width="62.451271"
       height="2.0850129"
       x="39.741383"
       y="60.553013" />
    <rect
       style="fill:#000000;stroke-width:0.653648;stroke-linejoin:bevel"
       id="rect487-6-6-1"
       width="62.451271"
       height="2.0850129"
       x="-48.881176"
       y="1.7440616" />
    <rect
       style="fill:#000000;stroke-width:0.653648;stroke-linejoin:bevel"
       id="rect487-6-06-8"
       width="62.451271"
       height="2.0850129"
       x="39.734814"
       y="1.2634288" />
    <rect
       style="fill:#000000;stroke-width:0.653648;stroke-linejoin:bevel"
       id="rect487-6-6-2-7"
       width="62.451271"
       height="2.0850129"
       x="-48.859905"
       y="5.7927947" />
    <rect
       style="fill:#000000;stroke-width:0.653648;stroke-linejoin:bevel"
       id="rect487-6-06-6-9"
       width="62.451271"
       height="2.0850129"
       x="39.756088"
       y="5.3121657" />
    <rect
       style="fill:#0088aa;stroke-width:0.745464;stroke-linejoin:bevel"
       id="rect234"
       width="42.333332"
       height="52.916664"
       x="5.5003958"
       y="4.1104698" />
    <rect
       style="fill:#55ddff;stroke-width:0.778832;stroke-linejoin:bevel"
       id="rect1367"
       width="26.458332"
       height="26.458332"
       x="13.437895"
       y="14.693803" />
    <rect
       style="fill:#55ddff;stroke-width:0.840732;stroke-linejoin:bevel"
       id="rect1421"
       width="21.166666"
       height="6.614583"
       x="16.083729"
       y="41.152138" />
    <circle
       style="fill:#80e5ff;stroke-width:0.745062;stroke-linejoin:bevel"
       id="path970"
       cx="26.667061"
       cy="35.860474"
       r="6.614583" />
    <circle
       style="fill:#00aad4;stroke-width:0.881218;stroke-linejoin:bevel"
       id="path916"
       cx="26.667061"
       cy="27.922972"
       r="10.583333" />
    <g
       aria-label="press to open"
       id="text1130"
       style="font-size:0.79375px;font-family:'DejaVu Sans';-inkscape-font-specification:'DejaVu Sans';text-align:center;text-anchor:middle;fill:#ff9955;stroke-width:0.79375;stroke-linejoin:bevel"
       transform="translate(0.20872868,4.1104706)">
      <path
         d="m 22.473723,36.180207 v 0.230219 h -0.0717 v -0.599189 h 0.0717 v 0.06589 q 0.02248,-0.03876 0.05659,-0.05736 0.03449,-0.01899 0.08216,-0.01899 0.07906,0 0.128287,0.06279 0.04961,0.06279 0.04961,0.165106 0,0.102319 -0.04961,0.165106 -0.04922,0.06279 -0.128287,0.06279 -0.04767,0 -0.08216,-0.0186 -0.03411,-0.01899 -0.05659,-0.05775 z m 0.242621,-0.151541 q 0,-0.07868 -0.03256,-0.123248 -0.03217,-0.04496 -0.08875,-0.04496 -0.05659,0 -0.08914,0.04496 -0.03217,0.04457 -0.03217,0.123248 0,0.07868 0.03217,0.123636 0.03256,0.04457 0.08914,0.04457 0.05659,0 0.08875,-0.04457 0.03256,-0.04496 0.03256,-0.123636 z"
         style="fill:#000000"
         id="path1288" />
      <path
         d="m 23.160115,35.8779 q -0.01202,-0.007 -0.02636,-0.01008 -0.01395,-0.0035 -0.03101,-0.0035 -0.06046,0 -0.09302,0.03953 -0.03217,0.03915 -0.03217,0.112784 v 0.228668 h -0.0717 V 35.81122 h 0.0717 v 0.06744 q 0.02248,-0.03953 0.05852,-0.05852 0.03604,-0.01938 0.08759,-0.01938 0.0074,0 0.01628,0.0012 0.0089,7.75e-4 0.01977,0.0027 z"
         style="fill:#000000"
         id="path1290" />
      <path
         d="m 23.588771,36.01045 v 0.03488 h -0.327887 q 0.0047,0.07364 0.04418,0.112396 0.03992,0.03837 0.110846,0.03837 0.04108,0 0.07945,-0.01008 0.03876,-0.01008 0.07674,-0.03023 v 0.06744 q -0.03837,0.01628 -0.07868,0.0248 -0.04031,0.0085 -0.08178,0.0085 -0.10387,0 -0.164719,-0.06046 -0.06046,-0.06046 -0.06046,-0.163556 0,-0.106583 0.05736,-0.168982 0.05775,-0.06279 0.155417,-0.06279 0.08759,0 0.138363,0.05659 0.05116,0.0562 0.05116,0.153091 z m -0.07131,-0.02093 q -7.76e-4,-0.05852 -0.03294,-0.09341 -0.03178,-0.03488 -0.08449,-0.03488 -0.05969,0 -0.09573,0.03372 -0.03566,0.03372 -0.04108,0.09496 z"
         style="fill:#000000"
         id="path1292" />
      <path
         d="m 23.982545,35.824027 v 0.06744 q -0.03023,-0.0155 -0.06279,-0.02325 -0.03256,-0.0078 -0.06744,-0.0078 -0.0531,0 -0.07984,0.01628 -0.02635,0.01628 -0.02635,0.04883 0,0.02481 0.01899,0.03915 0.01899,0.01395 0.07635,0.02674 l 0.02442,0.0054 q 0.07596,0.01628 0.107745,0.04612 0.03217,0.02946 0.03217,0.08255 0,0.06046 -0.04806,0.09573 -0.04767,0.03527 -0.131388,0.03527 -0.03488,0 -0.07286,-0.007 -0.03759,-0.0066 -0.07945,-0.02015 v -0.07364 q 0.03953,0.02054 0.0779,0.03101 0.03837,0.01008 0.07597,0.01008 0.05038,0 0.07751,-0.01705 0.02713,-0.01744 0.02713,-0.04883 0,-0.02907 -0.01977,-0.04457 -0.01938,-0.0155 -0.08565,-0.02984 l -0.02481,-0.0058 q -0.06627,-0.01395 -0.09573,-0.04263 -0.02946,-0.02907 -0.02946,-0.07945 0,-0.06124 0.04341,-0.09457 0.04341,-0.03333 0.123248,-0.03333 0.03953,0 0.07441,0.0058 0.03488,0.0058 0.06434,0.01744 z"
         style="fill:#000000"
         id="path1294" />
      <path
         d="m 24.396086,35.824027 v 0.06744 q -0.03023,-0.0155 -0.06279,-0.02325 -0.03256,-0.0078 -0.06744,-0.0078 -0.0531,0 -0.07984,0.01628 -0.02635,0.01628 -0.02635,0.04883 0,0.02481 0.01899,0.03915 0.01899,0.01395 0.07635,0.02674 l 0.02442,0.0054 q 0.07596,0.01628 0.107745,0.04612 0.03217,0.02946 0.03217,0.08255 0,0.06046 -0.04806,0.09573 -0.04767,0.03527 -0.131387,0.03527 -0.03488,0 -0.07286,-0.007 -0.03759,-0.0066 -0.07945,-0.02015 v -0.07364 q 0.03953,0.02054 0.0779,0.03101 0.03837,0.01008 0.07596,0.01008 0.05038,0 0.07751,-0.01705 0.02713,-0.01744 0.02713,-0.04883 0,-0.02907 -0.01977,-0.04457 -0.01938,-0.0155 -0.08565,-0.02984 l -0.0248,-0.0058 q -0.06628,-0.01395 -0.09573,-0.04263 -0.02946,-0.02907 -0.02946,-0.07945 0,-0.06124 0.04341,-0.09457 0.04341,-0.03333 0.123248,-0.03333 0.03953,0 0.07441,0.0058 0.03488,0.0058 0.06434,0.01744 z"
         style="fill:#000000"
         id="path1296" />
      <path
         d="m 24.855748,35.687989 v 0.123248 h 0.14689 v 0.05542 h -0.14689 v 0.235645 q 0,0.0531 0.01434,0.06821 0.01473,0.01512 0.0593,0.01512 h 0.07325 v 0.05969 h -0.07325 q -0.08255,0 -0.113947,-0.03062 -0.03139,-0.03101 -0.03139,-0.112396 V 35.86666 h -0.05232 v -0.05542 h 0.05232 v -0.123248 z"
         style="fill:#000000"
         id="path1298" />
      <path
         d="m 25.264638,35.861234 q -0.05736,0 -0.09069,0.04496 -0.03333,0.04457 -0.03333,0.122473 0,0.0779 0.03294,0.122861 0.03333,0.04457 0.09108,0.04457 0.05697,0 0.0903,-0.04496 0.03333,-0.04496 0.03333,-0.122473 0,-0.07713 -0.03333,-0.122086 -0.03333,-0.04535 -0.0903,-0.04535 z m 0,-0.06046 q 0.09302,0 0.146115,0.06046 0.0531,0.06046 0.0531,0.167432 0,0.106583 -0.0531,0.167432 -0.0531,0.06046 -0.146115,0.06046 -0.09341,0 -0.146503,-0.06046 -0.05271,-0.06085 -0.05271,-0.167432 0,-0.10697 0.05271,-0.167432 0.0531,-0.06046 0.146503,-0.06046 z"
         style="fill:#000000"
         id="path1300" />
      <path
         d="m 26.002577,35.861234 q -0.05736,0 -0.09069,0.04496 -0.03333,0.04457 -0.03333,0.122473 0,0.0779 0.03294,0.122861 0.03333,0.04457 0.09108,0.04457 0.05697,0 0.09031,-0.04496 0.03333,-0.04496 0.03333,-0.122473 0,-0.07713 -0.03333,-0.122086 -0.03333,-0.04535 -0.09031,-0.04535 z m 0,-0.06046 q 0.09302,0 0.146115,0.06046 0.0531,0.06046 0.0531,0.167432 0,0.106583 -0.0531,0.167432 -0.0531,0.06046 -0.146115,0.06046 -0.0934,0 -0.146503,-0.06046 -0.05271,-0.06085 -0.05271,-0.167432 0,-0.10697 0.05271,-0.167432 0.0531,-0.06046 0.146503,-0.06046 z"
         style="fill:#000000"
         id="path1302" />
      <path
         d="m 26.388988,36.180207 v 0.230219 h -0.0717 v -0.599189 h 0.0717 v 0.06589 q 0.02248,-0.03876 0.05658,-0.05736 0.03449,-0.01899 0.08217,-0.01899 0.07906,0 0.128287,0.06279 0.04961,0.06279 0.04961,0.165106 0,0.102319 -0.04961,0.165106 -0.04922,0.06279 -0.128287,0.06279 -0.04767,0 -0.08217,-0.0186 -0.03411,-0.01899 -0.05658,-0.05775 z m 0.242621,-0.151541 q 0,-0.07868 -0.03256,-0.123248 -0.03217,-0.04496 -0.08875,-0.04496 -0.05659,0 -0.08914,0.04496 -0.03217,0.04457 -0.03217,0.123248 0,0.07868 0.03217,0.123636 0.03256,0.04457 0.08914,0.04457 0.05659,0 0.08875,-0.04457 0.03256,-0.04496 0.03256,-0.123636 z"
         style="fill:#000000"
         id="path1304" />
      <path
         d="m 27.19514,36.01045 v 0.03488 h -0.327887 q 0.0047,0.07364 0.04418,0.112396 0.03992,0.03837 0.110846,0.03837 0.04108,0 0.07945,-0.01008 0.03876,-0.01008 0.07674,-0.03023 v 0.06744 q -0.03837,0.01628 -0.07868,0.0248 -0.04031,0.0085 -0.08178,0.0085 -0.10387,0 -0.164719,-0.06046 -0.06046,-0.06046 -0.06046,-0.163556 0,-0.106583 0.05736,-0.168982 0.05775,-0.06279 0.155417,-0.06279 0.08759,0 0.138363,0.05659 0.05116,0.0562 0.05116,0.153091 z m -0.07131,-0.02093 q -7.75e-4,-0.05852 -0.03294,-0.09341 -0.03178,-0.03488 -0.08449,-0.03488 -0.05969,0 -0.09573,0.03372 -0.03566,0.03372 -0.04108,0.09496 z"
         style="fill:#000000"
         id="path1306" />
      <path
         d="m 27.673018,35.98332 v 0.261999 h -0.07131 v -0.259674 q 0,-0.06162 -0.02403,-0.09224 -0.02403,-0.03062 -0.07209,-0.03062 -0.05775,0 -0.09108,0.03682 -0.03333,0.03682 -0.03333,0.100382 v 0.245333 h -0.0717 v -0.434082 h 0.0717 v 0.06744 q 0.02558,-0.03914 0.06007,-0.05852 0.03488,-0.01938 0.08023,-0.01938 0.0748,0 0.113172,0.04651 0.03837,0.04612 0.03837,0.136038 z"
         style="fill:#000000"
         id="path1308" />
    </g>
    <rect
       style="fill:#002255;stroke-width:0.79375;stroke-linejoin:bevel"
       id="rect1311"
       width="2.0752971"
       height="0.5655508"
       x="22.168699"
       y="38.905556" />
    <circle
       style="fill:#808080;stroke-width:0.718412;stroke-linejoin:bevel"
       id="path1475"
       cx="26.667061"
       cy="27.922972"
       r="1.3229166" />
    <rect
       style="fill:#aaeeff;stroke-width:0.864257;stroke-linejoin:bevel"
       id="rect1477"
       width="18.520832"
       height="5.2916665"
       x="17.406645"
       y="51.73547" />
    <path
       sodipodi:type="star"
       style="fill:#00ccff;stroke-width:0.79375;stroke-linejoin:bevel"
       id="path1196"
       inkscape:flatsided="true"
       sodipodi:sides="3"
       sodipodi:cx="8.3167772"
       sodipodi:cy="37.494888"
       sodipodi:r1="0.63484365"
       sodipodi:r2="0.31742185"
       sodipodi:arg1="0.52359878"
       sodipodi:arg2="1.5707963"
       inkscape:rounded="0"
       inkscape:randomized="0"
       d="m 8.866568,37.81231 -1.0995815,0 0.5497907,-0.952265 z"
       transform="matrix(0,-2.5574886,2.5574886,0,-91.191828,54.20385)"
       inkscape:transform-center-x="0.4059029" />
    <path
       sodipodi:type="star"
       style="fill:#00ccff;stroke-width:0.79375;stroke-linejoin:bevel"
       id="path1196-3"
       inkscape:flatsided="true"
       sodipodi:sides="3"
       sodipodi:cx="8.3167772"
       sodipodi:cy="37.494888"
       sodipodi:r1="0.63484365"
       sodipodi:r2="0.31742185"
       sodipodi:arg1="0.52359878"
       sodipodi:arg2="1.5707963"
       inkscape:rounded="0"
       inkscape:randomized="0"
       d="m 8.866568,37.81231 -1.0995815,0 0.5497907,-0.952265 z"
       transform="matrix(0,-2.5574886,-2.5575742,0,144.72718,53.433978)"
       inkscape:transform-center-x="-0.40591474" />
    <path
       sodipodi:type="star"
       style="fill:#00ccff;stroke-width:0.79375;stroke-linejoin:bevel"
       id="path1196-6"
       inkscape:flatsided="true"
       sodipodi:sides="3"
       sodipodi:cx="8.3167772"
       sodipodi:cy="37.494888"
       sodipodi:r1="0.63484365"
       sodipodi:r2="0.31742185"
       sodipodi:arg1="0.52359878"
       sodipodi:arg2="1.5707963"
       inkscape:rounded="0"
       inkscape:randomized="0"
       d="m 8.866568,37.81231 -1.0995815,0 0.5497907,-0.952265 z"
       transform="matrix(0,-2.5574886,2.5574886,0,-91.316307,58.449408)"
       inkscape:transform-center-x="0.4059029" />
    <path
       sodipodi:type="star"
       style="fill:#00ccff;stroke-width:0.79375;stroke-linejoin:bevel"
       id="path1196-3-7"
       inkscape:flatsided="true"
       sodipodi:sides="3"
       sodipodi:cx="8.3167772"
       sodipodi:cy="37.494888"
       sodipodi:r1="0.63484365"
       sodipodi:r2="0.31742185"
       sodipodi:arg1="0.52359878"
       sodipodi:arg2="1.5707963"
       inkscape:rounded="0"
       inkscape:randomized="0"
       d="m 8.866568,37.81231 -1.0995815,0 0.5497907,-0.952265 z"
       transform="matrix(0,-2.5574886,-2.5575742,0,144.6027,57.679536)"
       inkscape:transform-center-x="-0.40591474" />
    <path
       sodipodi:type="star"
       style="fill:#00ccff;stroke-width:0.79375;stroke-linejoin:bevel"
       id="path1196-5"
       inkscape:flatsided="true"
       sodipodi:sides="3"
       sodipodi:cx="8.3167772"
       sodipodi:cy="37.494888"
       sodipodi:r1="0.63484365"
       sodipodi:r2="0.31742185"
       sodipodi:arg1="0.52359878"
       sodipodi:arg2="1.5707963"
       inkscape:rounded="0"
       inkscape:randomized="0"
       d="m 8.866568,37.81231 -1.0995815,0 0.5497907,-0.952265 z"
       transform="matrix(0,-2.5574886,2.5574886,0,-91.158173,62.932279)"
       inkscape:transform-center-x="0.4059029" />
    <path
       sodipodi:type="star"
       style="fill:#00ccff;stroke-width:0.79375;stroke-linejoin:bevel"
       id="path1196-3-3"
       inkscape:flatsided="true"
       sodipodi:sides="3"
       sodipodi:cx="8.3167772"
       sodipodi:cy="37.494888"
       sodipodi:r1="0.63484365"
       sodipodi:r2="0.31742185"
       sodipodi:arg1="0.52359878"
       sodipodi:arg2="1.5707963"
       inkscape:rounded="0"
       inkscape:randomized="0"
       d="m 8.866568,37.81231 -1.0995815,0 0.5497907,-0.952265 z"
       transform="matrix(0,-2.5574886,-2.5575742,0,144.76084,62.162407)"
       inkscape:transform-center-x="-0.40591474" />
    <path
       sodipodi:type="star"
       style="fill:#00ccff;stroke-width:0.79375;stroke-linejoin:bevel"
       id="path1196-56"
       inkscape:flatsided="true"
       sodipodi:sides="3"
       sodipodi:cx="8.3167772"
       sodipodi:cy="37.494888"
       sodipodi:r1="0.63484365"
       sodipodi:r2="0.31742185"
       sodipodi:arg1="0.52359878"
       sodipodi:arg2="1.5707963"
       inkscape:rounded="0"
       inkscape:randomized="0"
       d="m 8.866568,37.81231 -1.0995815,0 0.5497907,-0.952265 z"
       transform="matrix(0,-2.5574886,2.5574886,0,-91.479302,49.248278)"
       inkscape:transform-center-x="0.4059029" />
    <path
       sodipodi:type="star"
       style="fill:#00ccff;stroke-width:0.79375;stroke-linejoin:bevel"
       id="path1196-3-2"
       inkscape:flatsided="true"
       sodipodi:sides="3"
       sodipodi:cx="8.3167772"
       sodipodi:cy="37.494888"
       sodipodi:r1="0.63484365"
       sodipodi:r2="0.31742185"
       sodipodi:arg1="0.52359878"
       sodipodi:arg2="1.5707963"
       inkscape:rounded="0"
       inkscape:randomized="0"
       d="m 8.866568,37.81231 -1.0995815,0 0.5497907,-0.952265 z"
       transform="matrix(0,-2.5574886,-2.5575742,0,144.43971,48.478406)"
       inkscape:transform-center-x="-0.40591474" />
    <path
       sodipodi:type="star"
       style="fill:#00ccff;stroke-width:0.79375;stroke-linejoin:bevel"
       id="path1196-9"
       inkscape:flatsided="true"
       sodipodi:sides="3"
       sodipodi:cx="8.3167772"
       sodipodi:cy="37.494888"
       sodipodi:r1="0.63484365"
       sodipodi:r2="0.31742185"
       sodipodi:arg1="0.52359878"
       sodipodi:arg2="1.5707963"
       inkscape:rounded="0"
       inkscape:randomized="0"
       d="m 8.866568,37.81231 -1.0995815,0 0.5497907,-0.952265 z"
       transform="matrix(0,-2.5574886,2.5574886,0,-91.246341,44.937296)"
       inkscape:transform-center-x="0.4059029" />
    <path
       sodipodi:type="star"
       style="fill:#00ccff;stroke-width:0.79375;stroke-linejoin:bevel"
       id="path1196-3-1"
       inkscape:flatsided="true"
       sodipodi:sides="3"
       sodipodi:cx="8.3167772"
       sodipodi:cy="37.494888"
       sodipodi:r1="0.63484365"
       sodipodi:r2="0.31742185"
       sodipodi:arg1="0.52359878"
       sodipodi:arg2="1.5707963"
       inkscape:rounded="0"
       inkscape:randomized="0"
       d="m 8.866568,37.81231 -1.0995815,0 0.5497907,-0.952265 z"
       transform="matrix(0,-2.5574886,-2.5575742,0,144.67267,44.167424)"
       inkscape:transform-center-x="-0.40591474" />
    <path
       sodipodi:type="star"
       style="fill:#00ccff;stroke-width:0.79375;stroke-linejoin:bevel"
       id="path1196-2"
       inkscape:flatsided="true"
       sodipodi:sides="3"
       sodipodi:cx="8.3167772"
       sodipodi:cy="37.494888"
       sodipodi:r1="0.63484365"
       sodipodi:r2="0.31742185"
       sodipodi:arg1="0.52359878"
       sodipodi:arg2="1.5707963"
       inkscape:rounded="0"
       inkscape:randomized="0"
       d="m 8.866568,37.81231 -1.0995815,0 0.5497907,-0.952265 z"
       transform="matrix(0,-2.5574886,2.5574886,0,-91.283955,41.131061)"
       inkscape:transform-center-x="0.4059029" />
    <path
       sodipodi:type="star"
       style="fill:#00ccff;stroke-width:0.79375;stroke-linejoin:bevel"
       id="path1196-3-70"
       inkscape:flatsided="true"
       sodipodi:sides="3"
       sodipodi:cx="8.3167772"
       sodipodi:cy="37.494888"
       sodipodi:r1="0.63484365"
       sodipodi:r2="0.31742185"
       sodipodi:arg1="0.52359878"
       sodipodi:arg2="1.5707963"
       inkscape:rounded="0"
       inkscape:randomized="0"
       d="m 8.866568,37.81231 -1.0995815,0 0.5497907,-0.952265 z"
       transform="matrix(0,-2.5574886,-2.5575742,0,144.63506,40.361189)"
       inkscape:transform-center-x="-0.40591474" />
    <path
       sodipodi:type="star"
       style="fill:#00ccff;stroke-width:0.79375;stroke-linejoin:bevel"
       id="path1196-93"
       inkscape:flatsided="true"
       sodipodi:sides="3"
       sodipodi:cx="8.3167772"
       sodipodi:cy="37.494888"
       sodipodi:r1="0.63484365"
       sodipodi:r2="0.31742185"
       sodipodi:arg1="0.52359878"
       sodipodi:arg2="1.5707963"
       inkscape:rounded="0"
       inkscape:randomized="0"
       d="m 8.866568,37.81231 -1.0995815,0 0.5497907,-0.952265 z"
       transform="matrix(0,-2.5574886,2.5574886,0,-91.408113,36.477918)"
       inkscape:transform-center-x="0.4059029" />
    <path
       sodipodi:type="star"
       style="fill:#00ccff;stroke-width:0.79375;stroke-linejoin:bevel"
       id="path1196-3-6"
       inkscape:flatsided="true"
       sodipodi:sides="3"
       sodipodi:cx="8.3167772"
       sodipodi:cy="37.494888"
       sodipodi:r1="0.63484365"
       sodipodi:r2="0.31742185"
       sodipodi:arg1="0.52359878"
       sodipodi:arg2="1.5707963"
       inkscape:rounded="0"
       inkscape:randomized="0"
       d="m 8.866568,37.81231 -1.0995815,0 0.5497907,-0.952265 z"
       transform="matrix(0,-2.5574886,-2.5575742,0,144.5109,35.708046)"
       inkscape:transform-center-x="-0.40591474" />
  </g>
</svg>
