<?xml version="1.0" encoding="UTF-8" standalone="no"?>
<!-- Created with Inkscape (http://www.inkscape.org/) -->

<svg
   width="100"
   height="100"
   viewBox="0 0 26.458333 26.458333"
   version="1.1"
   id="svg531"
   inkscape:version="1.2.2 (b0a8486541, 2022-12-01)"
   sodipodi:docname="player.svg"
   xmlns:inkscape="http://www.inkscape.org/namespaces/inkscape"
   xmlns:sodipodi="http://sodipodi.sourceforge.net/DTD/sodipodi-0.dtd"
   xmlns="http://www.w3.org/2000/svg"
   xmlns:svg="http://www.w3.org/2000/svg">
  <sodipodi:namedview
     id="namedview533"
     pagecolor="#505050"
     bordercolor="#ffffff"
     borderopacity="1"
     inkscape:showpageshadow="0"
     inkscape:pageopacity="0"
     inkscape:pagecheckerboard="1"
     inkscape:deskcolor="#505050"
     inkscape:document-units="px"
     showgrid="false"
     inkscape:zoom="7.7615189"
     inkscape:cx="64.420381"
     inkscape:cy="47.34898"
     inkscape:window-width="1920"
     inkscape:window-height="995"
     inkscape:window-x="0"
     inkscape:window-y="0"
     inkscape:window-maximized="1"
     inkscape:current-layer="layer1" />
  <defs
     id="defs528" />
  <g
     inkscape:label="Layer 1"
     inkscape:groupmode="layer"
     id="layer1">
    <path
       id="path1739"
       style="fill:#00ffff;stroke-width:1.20831;stroke-linejoin:bevel"
       d="M 26.458332,13.229166 A 13.229166,13.229166 0 0 1 13.229166,26.458332 13.229166,13.229166 0 0 1 0,13.229166 13.229166,13.229166 0 0 1 13.229166,0 13.229166,13.229166 0 0 1 26.458332,13.229166 Z" />
    <path
       id="path2103"
       style="fill:#55ddff;stroke-width:1.01435;stroke-linejoin:bevel"
       d="m 21.166666,13.229166 a 7.9375,7.9375 0 0 1 -7.9375,7.9375 7.9375,7.9375 0 0 1 -7.9375,-7.9375 7.9375,7.9375 0 0 1 7.9375,-7.9375 7.9375,7.9375 0 0 1 7.9375,7.9375 z" />
    <path
       id="path2049"
       style="fill:#cccccc;stroke-width:0.801214;stroke-linejoin:bevel"
       d="M 15.875,13.229167 A 2.6458333,2.6458333 0 0 1 13.229167,15.875 2.6458333,2.6458333 0 0 1 10.583334,13.229167 2.6458333,2.6458333 0 0 1 13.229167,10.583334 2.6458333,2.6458333 0 0 1 15.875,13.229167 Z" />
    <path
       id="rect2261"
       style="fill:#0000ff;stroke-width:0.389536;stroke-linejoin:bevel"
       d="m 9.3294716,16.902277 h 0.9248314 v 0.297845 H 9.3294716 Z" />
    <g
       aria-label="press to open"
       id="text2317"
       style="font-size:0.389536px;font-family:'DejaVu Sans';-inkscape-font-specification:'DejaVu Sans';text-align:center;text-anchor:middle;stroke-width:0.389536;stroke-linejoin:bevel">
      <path
         d="m 9.3283548,17.508009 v 0.11298 h -0.035188 v -0.294054 h 0.035188 v 0.03233 q 0.011032,-0.01902 0.02777,-0.02815 0.016928,-0.0093 0.040323,-0.0093 0.038801,0 0.062957,0.03081 0.024346,0.03081 0.024346,0.08103 0,0.05021 -0.024346,0.08103 -0.024156,0.03081 -0.062957,0.03081 -0.023395,0 -0.040323,-0.0091 -0.016738,-0.0093 -0.02777,-0.02834 z m 0.1190672,-0.07437 q 0,-0.03861 -0.015977,-0.06048 -0.015787,-0.02206 -0.043557,-0.02206 -0.02777,0 -0.043747,0.02206 -0.015787,0.02187 -0.015787,0.06048 0,0.03861 0.015787,0.06067 0.015977,0.02187 0.043747,0.02187 0.02777,0 0.043557,-0.02187 0.015977,-0.02206 0.015977,-0.06067 z"
         id="path2504" />
      <path
         d="m 9.6652046,17.35965 q -0.0059,-0.0034 -0.012934,-0.0049 -0.00685,-0.0017 -0.015216,-0.0017 -0.029672,0 -0.045649,0.0194 -0.015787,0.01921 -0.015787,0.05535 v 0.11222 h -0.035188 v -0.213028 h 0.035188 v 0.0331 q 0.011032,-0.0194 0.028721,-0.02872 0.017689,-0.0095 0.042986,-0.0095 0.00361,0 0.00799,5.7e-4 0.00437,3.81e-4 0.0097,0.0013 z"
         id="path2506" />
      <path
         d="m 9.8755692,17.4247 v 0.01712 H 9.7146573 q 0.00228,0.03614 0.021683,0.05516 0.019591,0.01883 0.054398,0.01883 0.020162,0 0.038992,-0.0049 0.01902,-0.0049 0.03766,-0.01484 v 0.03309 q -0.01883,0.008 -0.038611,0.01217 -0.019781,0.0042 -0.040133,0.0042 -0.050974,0 -0.080836,-0.02967 -0.029672,-0.02967 -0.029672,-0.08027 0,-0.05231 0.02815,-0.08293 0.02834,-0.03081 0.076272,-0.03081 0.042986,0 0.067902,0.02777 0.025107,0.02758 0.025107,0.07513 z m -0.034997,-0.01027 q -3.804e-4,-0.02872 -0.016167,-0.04584 -0.015597,-0.01712 -0.041464,-0.01712 -0.029291,0 -0.04698,0.01655 -0.017499,0.01655 -0.020162,0.0466 z"
         id="path2508" />
      <path
         d="m 10.068816,17.333212 v 0.03309 q -0.01484,-0.0076 -0.03081,-0.01141 -0.01598,-0.0038 -0.0331,-0.0038 -0.026057,0 -0.039181,0.008 -0.012934,0.008 -0.012934,0.02397 0,0.01217 0.00932,0.01921 0.00932,0.0068 0.03747,0.01312 l 0.011982,0.0027 q 0.03728,0.008 0.05288,0.02263 0.01579,0.01445 0.01579,0.04051 0,0.02967 -0.02359,0.04698 -0.02339,0.01731 -0.064479,0.01731 -0.017118,0 -0.035758,-0.0034 -0.01845,-0.0032 -0.038992,-0.0099 v -0.03614 q 0.019401,0.01008 0.038231,0.01522 0.01883,0.0049 0.03728,0.0049 0.024726,0 0.03804,-0.0084 0.01331,-0.0086 0.01331,-0.02397 0,-0.01426 -0.0097,-0.02187 -0.0095,-0.0076 -0.042035,-0.01464 l -0.012173,-0.0029 q -0.032525,-0.0068 -0.04698,-0.02092 -0.014456,-0.01426 -0.014456,-0.03899 0,-0.03005 0.021303,-0.04641 0.021303,-0.01636 0.060485,-0.01636 0.0194,0 0.03652,0.0029 0.01712,0.0029 0.03157,0.0086 z"
         id="path2510" />
      <path
         d="m 10.271762,17.333212 v 0.03309 q -0.01484,-0.0076 -0.03081,-0.01141 -0.01598,-0.0038 -0.0331,-0.0038 -0.02606,0 -0.03918,0.008 -0.01293,0.008 -0.01293,0.02397 0,0.01217 0.0093,0.01921 0.0093,0.0068 0.03747,0.01312 l 0.01198,0.0027 q 0.03728,0.008 0.05288,0.02263 0.01579,0.01445 0.01579,0.04051 0,0.02967 -0.02359,0.04698 -0.0234,0.01731 -0.06448,0.01731 -0.01712,0 -0.03576,-0.0034 -0.01845,-0.0032 -0.03899,-0.0099 v -0.03614 q 0.0194,0.01008 0.03823,0.01522 0.01883,0.0049 0.03728,0.0049 0.02473,0 0.03804,-0.0084 0.01331,-0.0086 0.01331,-0.02397 0,-0.01426 -0.0097,-0.02187 -0.0095,-0.0076 -0.04204,-0.01464 l -0.01217,-0.0029 q -0.03252,-0.0068 -0.04698,-0.02092 -0.01446,-0.01426 -0.01446,-0.03899 0,-0.03005 0.0213,-0.04641 0.0213,-0.01636 0.06048,-0.01636 0.0194,0 0.03652,0.0029 0.01712,0.0029 0.03157,0.0086 z"
         id="path2512" />
      <path
         d="m 10.497343,17.266451 v 0.06048 h 0.07209 v 0.0272 h -0.07209 v 0.115644 q 0,0.02606 0.007,0.03348 0.0072,0.0074 0.0291,0.0074 h 0.03595 v 0.02929 h -0.03595 q -0.04051,0 -0.05592,-0.01503 -0.01541,-0.01522 -0.01541,-0.05516 v -0.115644 h -0.02568 v -0.0272 h 0.02568 v -0.06048 z"
         id="path2514" />
      <path
         d="m 10.698007,17.351471 q -0.02815,0 -0.04451,0.02206 -0.01636,0.02187 -0.01636,0.0601 0,0.03823 0.01617,0.06029 0.01636,0.02187 0.0447,0.02187 0.02796,0 0.04432,-0.02206 0.01636,-0.02206 0.01636,-0.0601 0,-0.03785 -0.01636,-0.05991 -0.01636,-0.02225 -0.04432,-0.02225 z m 0,-0.02967 q 0.04565,0 0.07171,0.02967 0.02606,0.02967 0.02606,0.08217 0,0.05231 -0.02606,0.08217 -0.02606,0.02967 -0.07171,0.02967 -0.04584,0 -0.0719,-0.02967 -0.02587,-0.02986 -0.02587,-0.08217 0,-0.0525 0.02587,-0.08217 0.02606,-0.02967 0.0719,-0.02967 z"
         id="path2516" />
      <path
         d="m 11.060154,17.351471 q -0.02815,0 -0.04451,0.02206 -0.01636,0.02187 -0.01636,0.0601 0,0.03823 0.01617,0.06029 0.01636,0.02187 0.0447,0.02187 0.02796,0 0.04432,-0.02206 0.01636,-0.02206 0.01636,-0.0601 0,-0.03785 -0.01636,-0.05991 -0.01636,-0.02225 -0.04432,-0.02225 z m 0,-0.02967 q 0.04565,0 0.07171,0.02967 0.02606,0.02967 0.02606,0.08217 0,0.05231 -0.02606,0.08217 -0.02606,0.02967 -0.07171,0.02967 -0.04584,0 -0.0719,-0.02967 -0.02587,-0.02986 -0.02587,-0.08217 0,-0.0525 0.02587,-0.08217 0.02606,-0.02967 0.0719,-0.02967 z"
         id="path2518" />
      <path
         d="m 11.249787,17.508009 v 0.11298 h -0.03519 v -0.294054 h 0.03519 v 0.03233 q 0.01103,-0.01902 0.02777,-0.02815 0.01693,-0.0093 0.04032,-0.0093 0.0388,0 0.06296,0.03081 0.02435,0.03081 0.02435,0.08103 0,0.05021 -0.02435,0.08103 -0.02416,0.03081 -0.06296,0.03081 -0.02339,0 -0.04032,-0.0091 -0.01674,-0.0093 -0.02777,-0.02834 z m 0.119067,-0.07437 q 0,-0.03861 -0.01598,-0.06048 -0.01579,-0.02206 -0.04356,-0.02206 -0.02777,0 -0.04375,0.02206 -0.01579,0.02187 -0.01579,0.06048 0,0.03861 0.01579,0.06067 0.01598,0.02187 0.04375,0.02187 0.02777,0 0.04356,-0.02187 0.01598,-0.02206 0.01598,-0.06067 z"
         id="path2520" />
      <path
         d="m 11.645409,17.4247 v 0.01712 h -0.160912 q 0.0023,0.03614 0.02168,0.05516 0.01959,0.01883 0.0544,0.01883 0.02016,0 0.03899,-0.0049 0.01902,-0.0049 0.03766,-0.01484 v 0.03309 q -0.01883,0.008 -0.03861,0.01217 -0.01978,0.0042 -0.04013,0.0042 -0.05097,0 -0.08084,-0.02967 -0.02967,-0.02967 -0.02967,-0.08027 0,-0.05231 0.02815,-0.08293 0.02834,-0.03081 0.07627,-0.03081 0.04299,0 0.0679,0.02777 0.02511,0.02758 0.02511,0.07513 z m -0.035,-0.01027 q -3.81e-4,-0.02872 -0.01617,-0.04584 -0.0156,-0.01712 -0.04147,-0.01712 -0.02929,0 -0.04698,0.01655 -0.0175,0.01655 -0.02016,0.0466 z"
         id="path2522" />
      <path
         d="m 11.87993,17.411385 v 0.128578 h -0.035 v -0.127436 q 0,-0.03024 -0.01179,-0.04527 -0.01179,-0.01503 -0.03538,-0.01503 -0.02834,0 -0.0447,0.01807 -0.01636,0.01807 -0.01636,0.04926 v 0.120399 h -0.03519 v -0.213028 h 0.03519 v 0.0331 q 0.01255,-0.01921 0.02948,-0.02872 0.01712,-0.0095 0.03937,-0.0095 0.03671,0 0.05554,0.02282 0.01883,0.02263 0.01883,0.06676 z"
         id="path2524" />
    </g>
    <g
       aria-label="install gun here"
       id="text2423"
       style="font-size:0.529167px;font-family:'DejaVu Sans';-inkscape-font-specification:'DejaVu Sans';text-align:center;text-anchor:middle;stroke-width:0.79375;stroke-linejoin:bevel">
      <path
         d="m 11.231232,13.25502 h 0.04754 v 0.289388 h -0.04754 z m 0,-0.112655 h 0.04754 v 0.0602 h -0.04754 z"
         id="path2475" />
      <path
         d="m 11.618806,13.369741 v 0.174667 h -0.04754 v -0.173116 q 0,-0.04108 -0.01602,-0.0615 -0.01602,-0.02041 -0.04806,-0.02041 -0.0385,0 -0.06072,0.02455 -0.02222,0.02455 -0.02222,0.06692 v 0.163556 h -0.0478 V 13.25502 h 0.0478 v 0.04496 q 0.01705,-0.0261 0.04005,-0.03902 0.02326,-0.01292 0.05349,-0.01292 0.04987,0 0.07545,0.03101 0.02558,0.03075 0.02558,0.09069 z"
         id="path2477" />
      <path
         d="m 11.898117,13.263546 v 0.04496 q -0.02015,-0.01034 -0.04186,-0.0155 -0.0217,-0.0052 -0.04496,-0.0052 -0.0354,0 -0.05323,0.01085 -0.01757,0.01085 -0.01757,0.03256 0,0.01654 0.01266,0.0261 0.01266,0.0093 0.0509,0.01783 l 0.01628,0.0036 q 0.05064,0.01085 0.07183,0.03075 0.02145,0.01964 0.02145,0.05504 0,0.04031 -0.03204,0.06382 -0.03178,0.02351 -0.08759,0.02351 -0.02325,0 -0.04858,-0.0047 -0.02506,-0.0044 -0.05297,-0.01344 v -0.04909 q 0.02636,0.01369 0.05194,0.02067 0.02558,0.0067 0.05064,0.0067 0.03359,0 0.05168,-0.01137 0.01809,-0.01163 0.01809,-0.03256 0,-0.01938 -0.01318,-0.02971 -0.01292,-0.01033 -0.0571,-0.01989 l -0.01654,-0.0039 q -0.04418,-0.0093 -0.06382,-0.02842 -0.01964,-0.01938 -0.01964,-0.05297 0,-0.04082 0.02894,-0.06305 0.02894,-0.02222 0.08216,-0.02222 0.02635,0 0.04961,0.0039 0.02325,0.0039 0.04289,0.01163 z"
         id="path2479" />
      <path
         d="m 12.036352,13.172854 v 0.08217 h 0.09793 v 0.03695 h -0.09793 v 0.157097 q 0,0.0354 0.0096,0.04548 0.0098,0.01008 0.03953,0.01008 h 0.04883 v 0.03979 h -0.04883 q -0.05504,0 -0.07596,-0.02041 -0.02093,-0.02067 -0.02093,-0.07493 v -0.157097 h -0.03488 v -0.03695 h 0.03488 v -0.08217 z"
         id="path2481" />
      <path
         d="m 12.328324,13.398939 q -0.05762,0 -0.07984,0.01318 -0.02222,0.01318 -0.02222,0.04496 0,0.02532 0.01654,0.04031 0.0168,0.01473 0.04547,0.01473 0.03953,0 0.0633,-0.02791 0.02403,-0.02816 0.02403,-0.07467 v -0.01059 z m 0.09483,-0.01964 v 0.165106 h -0.04754 v -0.04393 q -0.01628,0.02636 -0.04057,0.03902 -0.02429,0.0124 -0.05943,0.0124 -0.04444,0 -0.0708,-0.02481 -0.0261,-0.02506 -0.0261,-0.06692 0,-0.04883 0.03256,-0.07364 0.03281,-0.0248 0.09767,-0.0248 h 0.06666 v -0.0047 q 0,-0.03282 -0.0217,-0.05064 -0.02145,-0.01809 -0.06046,-0.01809 -0.02481,0 -0.04832,0.0059 -0.02351,0.0059 -0.04522,0.01783 v -0.04392 q 0.0261,-0.01008 0.05064,-0.01499 0.02455,-0.0052 0.0478,-0.0052 0.06279,0 0.09379,0.03256 0.03101,0.03256 0.03101,0.0987 z"
         id="path2483" />
      <path
         d="m 12.521077,13.142365 h 0.04754 v 0.402043 h -0.04754 z"
         id="path2485" />
      <path
         d="m 12.668096,13.142365 h 0.04754 v 0.402043 h -0.04754 z"
         id="path2487" />
      <path
         d="m 13.173751,13.396355 q 0,-0.05168 -0.02145,-0.0801 -0.02119,-0.02842 -0.05969,-0.02842 -0.03824,0 -0.05969,0.02842 -0.02119,0.02842 -0.02119,0.0801 0,0.05142 0.02119,0.07984 0.02145,0.02842 0.05969,0.02842 0.0385,0 0.05969,-0.02842 0.02145,-0.02842 0.02145,-0.07984 z m 0.04754,0.112138 q 0,0.0739 -0.03281,0.109812 -0.03281,0.03617 -0.10051,0.03617 -0.02506,0 -0.04728,-0.0039 -0.02222,-0.0036 -0.04315,-0.01137 v -0.04625 q 0.02093,0.01137 0.04134,0.0168 0.02041,0.0054 0.0416,0.0054 0.04677,0 0.07002,-0.02455 0.02325,-0.02429 0.02325,-0.07364 v -0.02351 q -0.01473,0.02558 -0.03772,0.03824 -0.023,0.01266 -0.05504,0.01266 -0.05323,0 -0.08578,-0.04057 -0.03256,-0.04057 -0.03256,-0.107487 0,-0.06718 0.03256,-0.107746 0.03256,-0.04057 0.08578,-0.04057 0.03204,0 0.05504,0.01266 0.023,0.01266 0.03772,0.03824 v -0.04392 h 0.04754 z"
         id="path2489" />
      <path
         d="M 13.314311,13.430203 V 13.25502 h 0.04754 v 0.173374 q 0,0.04108 0.01602,0.06175 0.01602,0.02041 0.04806,0.02041 0.0385,0 0.06072,-0.02455 0.02248,-0.02455 0.02248,-0.06692 V 13.25502 h 0.04754 v 0.289388 h -0.04754 v -0.04444 q -0.01731,0.02635 -0.04031,0.03927 -0.02274,0.01266 -0.05297,0.01266 -0.04987,0 -0.07571,-0.03101 -0.02584,-0.03101 -0.02584,-0.09069 z m 0.119631,-0.18216 z"
         id="path2491" />
      <path
         d="m 13.895154,13.369741 v 0.174667 h -0.04754 v -0.173116 q 0,-0.04108 -0.01602,-0.0615 -0.01602,-0.02041 -0.04806,-0.02041 -0.0385,0 -0.06072,0.02455 -0.02222,0.02455 -0.02222,0.06692 v 0.163556 h -0.0478 V 13.25502 h 0.0478 v 0.04496 q 0.01705,-0.0261 0.04005,-0.03902 0.02326,-0.01292 0.05349,-0.01292 0.04987,0 0.07545,0.03101 0.02558,0.03075 0.02558,0.09069 z"
         id="path2493" />
      <path
         d="m 14.398741,13.369741 v 0.174667 h -0.04754 v -0.173116 q 0,-0.04108 -0.01602,-0.0615 -0.01602,-0.02041 -0.04806,-0.02041 -0.0385,0 -0.06072,0.02455 -0.02222,0.02455 -0.02222,0.06692 v 0.163556 h -0.0478 v -0.402043 h 0.0478 v 0.157613 q 0.01705,-0.0261 0.04005,-0.03902 0.02325,-0.01292 0.05348,-0.01292 0.04987,0 0.07545,0.03101 0.02558,0.03075 0.02558,0.09069 z"
         id="path2495" />
      <path
         d="m 14.741098,13.387828 v 0.02325 h -0.218592 q 0.0031,0.04909 0.02946,0.07493 0.02661,0.02558 0.0739,0.02558 0.02739,0 0.05297,-0.0067 0.02584,-0.0067 0.05116,-0.02015 v 0.04496 q -0.02558,0.01085 -0.05245,0.01654 -0.02687,0.0057 -0.05452,0.0057 -0.06925,0 -0.109812,-0.04031 -0.04031,-0.04031 -0.04031,-0.109037 0,-0.07106 0.03824,-0.112655 0.0385,-0.04186 0.103612,-0.04186 0.05839,0 0.09224,0.03772 0.03411,0.03747 0.03411,0.102061 z m -0.04754,-0.01395 q -5.16e-4,-0.03902 -0.02196,-0.06227 -0.02119,-0.02325 -0.05633,-0.02325 -0.03979,0 -0.06382,0.02248 -0.02377,0.02248 -0.02739,0.0633 z"
         id="path2497" />
      <path
         d="m 14.986819,13.299461 q -0.008,-0.0047 -0.01757,-0.0067 -0.0093,-0.0023 -0.02067,-0.0023 -0.04031,0 -0.06201,0.02635 -0.02145,0.0261 -0.02145,0.07519 v 0.152446 h -0.0478 V 13.25502 h 0.0478 v 0.04496 q 0.01499,-0.02635 0.03902,-0.03902 0.02403,-0.01292 0.05839,-0.01292 0.0049,0 0.01085,7.75e-4 0.0059,5.17e-4 0.01318,0.0018 z"
         id="path2499" />
      <path
         d="m 15.27259,13.387828 v 0.02325 h -0.218591 q 0.0031,0.04909 0.02946,0.07493 0.02661,0.02558 0.0739,0.02558 0.02739,0 0.05297,-0.0067 0.02584,-0.0067 0.05116,-0.02015 v 0.04496 q -0.02558,0.01085 -0.05245,0.01654 -0.02687,0.0057 -0.05452,0.0057 -0.06925,0 -0.109812,-0.04031 -0.04031,-0.04031 -0.04031,-0.109037 0,-0.07106 0.03824,-0.112655 0.0385,-0.04186 0.103611,-0.04186 0.0584,0 0.09224,0.03772 0.03411,0.03747 0.03411,0.102061 z m -0.04754,-0.01395 q -5.17e-4,-0.03902 -0.02196,-0.06227 -0.02119,-0.02325 -0.05633,-0.02325 -0.03979,0 -0.06382,0.02248 -0.02377,0.02248 -0.02739,0.0633 z"
         id="path2501" />
    </g>
  </g>
</svg>
