<?xml version="1.0" encoding="UTF-8" standalone="no"?>
<!-- Created with Inkscape (http://www.inkscape.org/) -->

<svg
   width="26.45833mm"
   height="26.45833mm"
   viewBox="0 0 26.45833 26.45833"
   version="1.1"
   id="svg629"
   sodipodi:docname="player_bullseyerandom.svg"
   inkscape:version="1.2.2 (b0a8486541, 2022-12-01)"
   xmlns:inkscape="http://www.inkscape.org/namespaces/inkscape"
   xmlns:sodipodi="http://sodipodi.sourceforge.net/DTD/sodipodi-0.dtd"
   xmlns="http://www.w3.org/2000/svg"
   xmlns:svg="http://www.w3.org/2000/svg">
  <sodipodi:namedview
     id="namedview631"
     pagecolor="#505050"
     bordercolor="#ffffff"
     borderopacity="1"
     inkscape:showpageshadow="0"
     inkscape:pageopacity="0"
     inkscape:pagecheckerboard="1"
     inkscape:deskcolor="#505050"
     inkscape:document-units="mm"
     showgrid="false"
     inkscape:zoom="3.7846085"
     inkscape:cx="-42.2765"
     inkscape:cy="54.563107"
     inkscape:window-width="1920"
     inkscape:window-height="995"
     inkscape:window-x="0"
     inkscape:window-y="0"
     inkscape:window-maximized="1"
     inkscape:current-layer="layer1" />
  <defs
     id="defs626" />
  <g
     inkscape:label="Layer 1"
     inkscape:groupmode="layer"
     id="layer1"
     transform="translate(-226.03182,-147.33275)">
    <circle
       style="fill:#000000;stroke:#000000;stroke-width:0;stroke-linejoin:bevel"
       id="path374"
       cx="239.26099"
       cy="160.56192"
       r="13.229166" />
    <path
       id="path1739"
       style="fill:#0064ff;fill-opacity:1;stroke-width:1.03915;stroke-linejoin:bevel"
       d="m 250.63807,160.56191 a 11.377086,11.377085 0 0 1 -11.3771,11.37709 11.377086,11.377085 0 0 1 -11.37707,-11.37709 11.377086,11.377085 0 0 1 11.37707,-11.37708 11.377086,11.377085 0 0 1 11.3771,11.37708 z" />
    <path
       id="path2103"
       style="fill:#34d0ff;fill-opacity:1;stroke-width:0.872341;stroke-linejoin:bevel"
       d="m 246.08725,160.56191 a 6.8262529,6.8262519 0 0 1 -6.82628,6.82626 6.8262529,6.8262519 0 0 1 -6.82623,-6.82626 6.8262529,6.8262519 0 0 1 6.82623,-6.82624 6.8262529,6.8262519 0 0 1 6.82628,6.82624 z" />
    <path
       id="path2049"
       style="fill:#d7ffff;fill-opacity:1;stroke-width:0.689045;stroke-linejoin:bevel"
       d="m 241.5364,160.56191 a 2.2754177,2.2754173 0 0 1 -2.27543,2.27542 2.2754177,2.2754173 0 0 1 -2.27541,-2.27542 2.2754177,2.2754173 0 0 1 2.27541,-2.27542 2.2754177,2.2754173 0 0 1 2.27543,2.27542 z" />
  </g>
</svg>
