<?xml version="1.0" encoding="UTF-8"?>
<svg xmlns="http://www.w3.org/2000/svg" xmlns:xlink="http://www.w3.org/1999/xlink" width="166px" height="100px" viewBox="0 0 166 100" version="1.1">
<g id="surface1">
<path style=" stroke:none;fill-rule:nonzero;fill:rgb(0%,0%,0%);fill-opacity:1;" d="M 102.703125 50.003906 L 164.359375 12.863281 C 166.546875 11.542969 166.546875 9.410156 164.359375 8.089844 L 152.574219 0.992188 C 151.527344 0.359375 150.101562 0.00390625 148.613281 0.00390625 C 147.128906 0.00390625 145.703125 0.359375 144.65625 0.992188 L 83 38.132812 L 21.34375 0.992188 C 20.296875 0.359375 18.871094 0.00390625 17.386719 0.00390625 C 15.898438 0.00390625 14.472656 0.359375 13.425781 0.992188 L 1.640625 8.089844 C -0.546875 9.410156 -0.546875 11.542969 1.640625 12.863281 L 63.296875 50.003906 L 1.648438 87.136719 C -0.539062 88.457031 -0.539062 90.589844 1.648438 91.910156 L 13.433594 99.007812 C 14.480469 99.640625 15.90625 99.996094 17.390625 99.996094 C 18.878906 99.996094 20.304688 99.640625 21.351562 99.007812 L 83 61.871094 L 144.648438 99.007812 C 145.695312 99.640625 147.121094 99.996094 148.609375 99.996094 C 150.09375 99.996094 151.519531 99.640625 152.566406 99.007812 L 164.351562 91.910156 C 166.539062 90.589844 166.539062 88.457031 164.351562 87.136719 Z M 102.703125 50.003906 "/>
</g>
</svg>
